<?xml version="1.0" encoding="UTF-8"?>
<!DOCTYPE svg PUBLIC "-//W3C//DTD SVG 1.1//EN" "http://www.w3.org/Graphics/SVG/1.1/DTD/svg11.dtd">
<!-- Creator: CorelDRAW 2021 (64-Bit) -->
<svg xmlns="http://www.w3.org/2000/svg" xml:space="preserve" width="20cm" height="20cm" version="1.1" style="shape-rendering:geometricPrecision; text-rendering:geometricPrecision; image-rendering:optimizeQuality; fill-rule:evenodd; clip-rule:evenodd"
viewBox="0 0 1612.48 1612.48"
 xmlns:xlink="http://www.w3.org/1999/xlink"
 xmlns:xodm="http://www.corel.com/coreldraw/odm/2003">
 <defs>
  <style type="text/css">
   <![CDATA[
    .fil11 {fill:#FEFEFE}
    .fil0 {fill:black}
    .fil10 {fill:#FEFEFE}
    .fil6 {fill:#282829;fill-rule:nonzero}
    .fil1 {fill:#0048CF;fill-rule:nonzero}
    .fil7 {fill:#009926;fill-rule:nonzero}
    .fil2 {fill:#00A1E6;fill-rule:nonzero}
    .fil3 {fill:#04C4BA;fill-rule:nonzero}
    .fil8 {fill:#64C700;fill-rule:nonzero}
    .fil14 {fill:#8C038C;fill-rule:nonzero}
    .fil9 {fill:#E8003E;fill-rule:nonzero}
    .fil5 {fill:#FC7A00;fill-rule:nonzero}
    .fil12 {fill:#FEFEFE;fill-rule:nonzero}
    .fil13 {fill:#FF0009;fill-rule:nonzero}
    .fil4 {fill:#FF2508;fill-rule:nonzero}
   ]]>
  </style>
 </defs>
 <g id="Capa_x0020_1">
  <metadata id="CorelCorpID_0Corel-Layer"/>
  <g id="_3018453768656">
   <path class="fil0" d="M806.24 0c445.27,0 806.24,360.96 806.24,806.24 0,445.27 -360.96,806.24 -806.24,806.24 -445.27,0 -806.24,-360.96 -806.24,-806.24 0,-445.27 360.96,-806.24 806.24,-806.24z"/>
   <path class="fil1" d="M802.54 909.84l0 -37 3.7 0c193.8,0 351.48,-157.67 351.48,-351.46l0 -3.7 36.98 0 0 3.7c0,214.19 -174.26,388.46 -388.46,388.46l-3.7 0z"/>
   <path class="fil2" d="M417.78 525.07l0 -3.69c0,-214.2 174.27,-388.46 388.46,-388.46l3.7 0 0 37.01 -3.7 0c-193.79,0 -351.47,157.64 -351.47,351.45l0 3.69 -36.99 0z"/>
   <path class="fil3" d="M806.24 854.33c-183.61,0 -332.96,-149.37 -332.96,-332.95l0 -3.7 36.99 0 0 3.7c0,163.18 132.77,295.98 295.97,295.98l3.7 0 0 36.97 -3.7 0z"/>
   <path class="fil4" d="M1102.21 525.07l0 -3.69c0,-163.21 -132.76,-295.97 -295.97,-295.97l-3.7 0 0 -37 3.7 0c183.61,0 332.97,149.36 332.97,332.97l0 3.69 -37 0z"/>
   <path class="fil5" d="M802.54 798.85l0 -37.01 3.7 0c132.61,0 240.48,-107.87 240.48,-240.46l0 -3.7 37 0 0 3.7c0,152.99 -124.48,277.47 -277.48,277.47l-3.7 0z"/>
   <path class="fil6" d="M528.77 525.07l0 -3.69c0,-153 124.48,-277.47 277.47,-277.47l3.7 0 0 36.99 -3.7 0c-132.6,0 -240.47,107.87 -240.47,240.48l0 3.69 -36.99 0z"/>
   <path class="fil7" d="M991.22 525.07l0 -3.69c0,-102 -82.97,-184.97 -184.98,-184.97l-3.7 0 0 -37.01 3.7 0c122.4,0 221.97,99.58 221.97,221.98l0 3.69 -36.99 0z"/>
   <path class="fil8" d="M795.14 749.2c-122.4,0 -221.97,-99.58 -221.97,-221.98l0 -3.7 37 0 0 3.7c0,102 82.97,184.98 184.97,184.98l3.7 0 0 36.99 -3.7 0z"/>
   <path class="fil9" d="M802.54 687.86l0 -36.99 3.7 0c71.39,0 129.49,-58.08 129.49,-129.48l0 -3.7 37 0 0 3.7c0,91.8 -74.71,166.48 -166.49,166.48l-3.7 0z"/>
   <path class="fil10" d="M771.39 353.08c-37.16,8.85 -62.51,18.75 -88.08,41.74 -69.07,62.07 -82.43,163.49 -33.07,238.84 6.67,10.18 21.77,30.3 31.4,34.12 18.46,7.31 36.11,-11.31 27.93,-30.77 -3.26,-7.75 -38.11,-35.35 -43.67,-87.44 -2.15,-20.18 -0.54,-40.36 5.84,-59.34 36.7,-109.11 177.32,-126.57 241.2,-40.86 22.01,29.54 30.54,61 26.56,105.22 -1.96,21.81 -16.53,51.87 -30.47,67.52 -4.55,5.11 -12.78,11.95 -13.94,20.3 -2.95,21.2 18.72,34.72 34.62,22.8 15.01,-11.26 32.49,-39.66 40.51,-56.8 3.46,-7.38 5.65,-15.78 8.37,-24.27 27.43,-85.72 -15.48,-172.98 -95.09,-215.49 -26.04,-13.91 -78.49,-23.58 -112.09,-15.57zm-57.63 363.41c9.93,0.93 -1.82,4.19 25.25,4.06l96.19 -0.32c24.92,0.91 64.77,7.04 65.03,-21.76 0.27,-30.13 -40.55,-22.65 -65.24,-22.65 -29.32,0 -58.64,0.02 -87.97,0 -11.83,-0.01 -44.15,-3.26 -40.11,25.47 1.37,9.75 4.31,7.68 6.86,15.19zm185.88 47.46c2.14,-28.24 -11.38,-29.25 -37.46,-29.24 -22.06,0.01 -44,0.31 -66.17,0.29l-0.14 10.68 -6.3 0.05 -1.49 -10.71 -62 -0.35c-26.61,2.39 -25.82,42.55 1.62,43.88 6.65,0.32 14.18,-0.01 20.93,-0.01l124.79 0.05c17.47,-0.04 19.34,-4.88 26.23,-14.64zm-152.57 30.47c-9.29,5.52 -16.91,18.5 -9.51,31.78 6.24,11.18 18.07,11.3 33.44,11.25 16.39,-0.05 78.73,2.38 88.77,-2.42 10.08,-4.82 16,-18.45 9.81,-30.48 -6.42,-12.48 -15.76,-11.82 -33,-11.8 -13.74,0.01 -82.6,-2.45 -89.51,1.67zm54.33 101.75c10.58,-0.01 22.01,0.94 29.69,-3.42 10.44,-5.93 14.1,-19.2 9.74,-29.27 -1.68,-3.87 0.1,-0.39 -1.67,-2.94 -0.18,-0.26 -0.47,-0.64 -0.66,-0.89 -10.06,-12.71 -30.11,-9.3 -46.69,-9.25 -32.71,0.1 -34.88,30.95 -16.28,43.31 6.31,4.2 18.06,2.46 25.88,2.45z"/>
   <path class="fil11" d="M790.61 414.58c-24.64,2.48 -42,11.2 -59.96,24.72 -9.12,6.87 -20.3,20.38 -26.29,30.62 -11.85,20.27 -17.6,44.85 -14.91,69.44 6.42,58.65 58.18,107.22 124.48,100.75 57.9,-5.65 108.36,-58.46 101.1,-124.6 -3.44,-31.35 -17.49,-54.98 -39.1,-74.24 -19.42,-17.31 -49.94,-30.25 -85.32,-26.7zm-32.85 52.94c-9.29,3.29 -21.76,21 -26.53,31.38 -19.7,42.85 4.63,96.66 54.23,107.73 68.01,15.18 121.82,-61.96 79.98,-121.26 -4.72,-6.69 -15.06,-20.15 -24.46,-18 -8.45,1.93 -12.15,13.13 -7.5,17.72 2.44,2.41 4.78,3.47 7.84,6.56 30.98,31.23 14.95,80.73 -22.75,91.84 -50.89,15 -93.51,-41.95 -59.29,-87.43 6.95,-9.24 13,-9.64 13.44,-15.4 0.59,-7.86 -7.12,-15.92 -14.96,-13.14zm40.06 -20.84c-8.56,2.5 -6.68,11.95 -6.68,20.99l-0.02 55.56c-0.03,5.26 -0,7.86 3.16,10.69 2.69,2.41 7.4,3.18 11.66,1.9 8.08,-2.44 6.29,-11.53 6.29,-20.82l0.01 -55.57c0.02,-4.8 0.22,-7.82 -2.79,-10.63 -2.68,-2.49 -7.63,-3.28 -11.62,-2.11z"/>
    <path class="fil12" d="M454.97 1314.06c-28.01,0 -51.73,-9.71 -71.15,-29.13 -19.42,-19.42 -29.13,-43.14 -29.13,-71.15 0,-28.01 9.71,-51.73 29.13,-71.15 19.42,-19.42 43.14,-29.13 71.15,-29.13 5.6,0 10.18,1.73 13.73,5.18 3.55,3.45 5.32,7.98 5.32,13.59 0,5.6 -1.77,10.18 -5.32,13.73 -3.55,3.55 -8.12,5.32 -13.73,5.32 -17.55,0 -32.35,6.02 -44.4,18.07 -12.05,12.04 -18.07,26.84 -18.07,44.4 0,17.55 6.02,32.35 18.07,44.4 12.05,12.05 26.85,18.07 44.4,18.07 5.6,0 10.18,1.77 13.73,5.32 3.55,3.55 5.32,8.12 5.32,13.73 0,5.6 -1.77,10.13 -5.32,13.59 -3.55,3.46 -8.12,5.18 -13.73,5.18z"/>
   <path class="fil12" d="M514.59 1231.14l0 63.59c0,5.6 -1.77,10.13 -5.32,13.59 -3.55,3.46 -8.12,5.18 -13.73,5.18 -5.6,0 -10.13,-1.73 -13.59,-5.18 -3.45,-3.46 -5.18,-7.98 -5.18,-13.59l0 -63.59c0,-16.99 5.84,-31.28 17.51,-42.86 11.67,-11.58 26,-17.37 43,-17.37 5.42,0 9.9,1.77 13.45,5.32 3.55,3.55 5.32,8.03 5.32,13.45 0,11.58 -6.44,17.93 -19.33,19.05 -6.35,0.56 -11.63,2.85 -15.83,6.86 -4.2,4.02 -6.3,9.2 -6.3,15.55z"/>
   <path class="fil12" d="M679.82 1221.06l-35.86 35.02c-4.11,3.92 -8.5,5.88 -13.17,5.88 -5.23,0 -9.76,-1.96 -13.59,-5.88 -3.83,-3.92 -5.74,-8.5 -5.74,-13.73 0,-4.67 2.05,-9.06 6.16,-13.17l20.17 -19.89c-2.43,-0.37 -4.86,-0.56 -7.28,-0.56 -9.34,0 -17.27,3.27 -23.81,9.8 -6.54,6.54 -9.8,14.47 -9.8,23.81 0,9.34 3.27,17.32 9.8,23.95 6.54,6.63 14.47,9.94 23.81,9.94l24.93 0c5.6,0 10.13,1.73 13.59,5.18 3.46,3.46 5.18,7.98 5.18,13.59 0,5.6 -1.73,10.18 -5.18,13.73 -3.46,3.55 -7.98,5.32 -13.59,5.32l-24.93 0c-20.17,0 -37.12,-6.91 -50.84,-20.73 -13.73,-13.82 -20.59,-30.81 -20.59,-50.98 0,-20.17 6.86,-37.12 20.59,-50.84 13.73,-13.73 30.67,-20.59 50.84,-20.59 20.36,0 37.63,7.28 51.82,21.85 3.73,3.92 5.6,8.22 5.6,12.89 0,6.16 -2.71,11.3 -8.12,15.41z"/>
   <path class="fil12" d="M762.42 1314.06c-20.17,0 -37.12,-6.91 -50.84,-20.73 -13.73,-13.82 -20.59,-30.81 -20.59,-50.98 0,-20.17 6.86,-37.12 20.59,-50.84 13.73,-13.73 30.67,-20.59 50.84,-20.59 20.17,0 37.16,6.86 50.98,20.59 13.82,13.73 20.73,30.67 20.73,50.84l0 52.38c0,5.6 -1.77,10.13 -5.32,13.59 -3.55,3.46 -8.12,5.18 -13.73,5.18 -5.6,0 -10.13,-1.73 -13.59,-5.18 -3.45,-3.46 -5.18,-7.98 -5.18,-13.59l0 -52.38c0,-9.34 -3.31,-17.27 -9.94,-23.81 -6.63,-6.54 -14.61,-9.8 -23.95,-9.8 -9.34,0 -17.27,3.27 -23.81,9.8 -6.54,6.54 -9.8,14.47 -9.8,23.81 0,9.34 3.27,17.32 9.8,23.95 6.54,6.63 14.47,9.94 23.81,9.94 5.6,0 10.18,1.73 13.73,5.18 3.55,3.46 5.32,7.98 5.32,13.59 0,5.6 -1.77,10.18 -5.32,13.73 -3.55,3.55 -8.12,5.32 -13.73,5.32z"/>
   <path class="fil12" d="M957.9 1252.99c0,16.99 -5.79,31.33 -17.37,43 -11.58,11.67 -25.87,17.51 -42.86,17.51 -17.18,0 -31.56,-5.79 -43.14,-17.37 -11.58,-11.58 -17.37,-25.96 -17.37,-43.14l0 -96.36c0,-5.6 1.73,-10.18 5.18,-13.73 3.46,-3.55 7.98,-5.32 13.59,-5.32 5.6,0 10.18,1.77 13.73,5.32 3.55,3.55 5.32,8.12 5.32,13.73l0 14.85 64.15 0c5.6,0 10.13,1.73 13.59,5.18 3.46,3.45 5.18,7.98 5.18,13.59 0,12.7 -6.26,19.05 -18.77,19.05l-64.15 0 0 43.7c0,6.35 2.19,11.72 6.58,16.11 4.39,4.39 9.76,6.58 16.11,6.58 6.35,0 11.67,-2.19 15.97,-6.58 4.29,-4.39 6.44,-9.76 6.44,-16.11l0 -2.52c0,-5.42 1.82,-9.9 5.46,-13.45 3.64,-3.55 8.17,-5.32 13.59,-5.32 5.42,0 9.9,1.77 13.45,5.32 3.55,3.55 5.32,8.03 5.32,13.45l0 2.52z"/>
   <path class="fil12" d="M999.04 1294.73c0,5.6 -1.78,10.13 -5.32,13.59 -3.55,3.46 -8.12,5.18 -13.73,5.18 -5.6,0 -10.13,-1.73 -13.59,-5.18 -3.46,-3.46 -5.18,-7.98 -5.18,-13.59l0 -105.05c0,-5.6 1.73,-10.13 5.18,-13.59 3.46,-3.46 7.98,-5.18 13.59,-5.18 12.7,0 19.05,6.26 19.05,18.77l0 105.05z"/>
   <path class="fil12" d="M452.16 1094.55l0 -122.13c0,-16.62 5.7,-30.63 17.09,-42.02 11.39,-11.39 25.4,-17.09 42.02,-17.09 16.62,0 30.67,5.7 42.16,17.09 11.49,11.39 17.23,25.4 17.23,42.02 0,16.06 -5.51,29.79 -16.53,41.18 11.02,11.21 16.53,24.74 16.53,40.62 0,16.62 -5.74,30.63 -17.23,42.02 -11.48,11.39 -25.54,17.09 -42.16,17.09 -5.42,0 -9.9,-1.77 -13.45,-5.32 -3.55,-3.55 -5.32,-8.03 -5.32,-13.45 0,-5.6 1.77,-10.18 5.32,-13.73 3.55,-3.55 8.17,-5.32 13.87,-5.32 5.7,0 10.64,-2.1 14.85,-6.3 4.2,-4.2 6.3,-9.2 6.3,-14.99 0,-6.16 -2.33,-11.3 -7,-15.41 -4.67,-4.11 -10.18,-6.54 -16.53,-7.28 -5.23,-0.56 -9.66,-2.57 -13.31,-6.02 -3.64,-3.45 -5.46,-7.7 -5.46,-12.75 0,-5.6 1.96,-10.08 5.88,-13.45 3.92,-3.36 8.87,-5.14 14.85,-5.32 5.98,-0.19 11.06,-2.33 15.27,-6.44 4.2,-4.11 6.3,-9.15 6.3,-15.13 0,-5.98 -2.1,-11.02 -6.3,-15.13 -4.2,-4.11 -9.29,-6.16 -15.27,-6.16 -5.79,0 -10.79,2.1 -14.99,6.3 -4.2,4.2 -6.3,9.2 -6.3,14.99l0 122.13c0,5.6 -1.73,10.13 -5.18,13.59 -3.46,3.46 -7.98,5.18 -13.59,5.18 -5.6,0 -10.18,-1.73 -13.73,-5.18 -3.55,-3.46 -5.32,-7.98 -5.32,-13.59zm192.96 -123.81c20.17,0 37.16,6.86 50.98,20.59 13.82,13.73 20.73,30.67 20.73,50.84 0,20.17 -6.91,37.16 -20.73,50.98 -13.82,13.82 -30.81,20.73 -50.98,20.73 -20.17,0 -37.12,-6.91 -50.84,-20.73 -13.73,-13.82 -20.59,-30.81 -20.59,-50.98 0,-20.17 6.86,-37.12 20.59,-50.84 13.73,-13.73 30.67,-20.59 50.84,-20.59zm0 37.82c-9.34,0 -17.27,3.27 -23.81,9.8 -6.54,6.54 -9.8,14.47 -9.8,23.81 0,9.34 3.27,17.32 9.8,23.95 6.54,6.63 14.47,9.94 23.81,9.94 9.34,0 17.32,-3.31 23.95,-9.94 6.63,-6.63 9.94,-14.61 9.94,-23.95 0,-9.34 -3.32,-17.27 -9.94,-23.81 -6.63,-6.54 -14.61,-9.8 -23.95,-9.8zm195.76 44.26c0,16.99 -5.79,31.33 -17.37,43 -11.58,11.67 -25.87,17.51 -42.86,17.51 -17.18,0 -31.56,-5.79 -43.14,-17.37 -11.58,-11.58 -17.37,-25.96 -17.37,-43.14l0 -96.36c0,-5.6 1.73,-10.18 5.18,-13.73 3.46,-3.55 7.98,-5.32 13.59,-5.32 5.6,0 10.18,1.77 13.73,5.32 3.55,3.55 5.32,8.12 5.32,13.73l0 14.85 64.15 0c5.6,0 10.13,1.73 13.59,5.18 3.46,3.45 5.18,7.98 5.18,13.59 0,12.7 -6.26,19.05 -18.77,19.05l-64.15 0 0 43.7c0,6.35 2.19,11.72 6.58,16.11 4.39,4.39 9.76,6.58 16.11,6.58 6.35,0 11.67,-2.19 15.97,-6.58 4.3,-4.39 6.44,-9.76 6.44,-16.11l0 -2.52c0,-5.42 1.82,-9.9 5.46,-13.45 3.64,-3.55 8.17,-5.32 13.59,-5.32 5.42,0 9.9,1.77 13.45,5.32 3.55,3.55 5.32,8.03 5.32,13.45l0 2.52zm74.75 -82.08c20.17,0 37.16,6.86 50.98,20.59 13.82,13.73 20.73,30.67 20.73,50.84 0,20.17 -6.91,37.16 -20.73,50.98 -13.82,13.82 -30.81,20.73 -50.98,20.73 -20.17,0 -37.12,-6.91 -50.84,-20.73 -13.73,-13.82 -20.59,-30.81 -20.59,-50.98 0,-20.17 6.86,-37.12 20.59,-50.84 13.73,-13.73 30.67,-20.59 50.84,-20.59zm0 37.82c-9.34,0 -17.27,3.27 -23.81,9.8 -6.54,6.54 -9.8,14.47 -9.8,23.81 0,9.34 3.27,17.32 9.8,23.95 6.54,6.63 14.47,9.94 23.81,9.94 9.34,0 17.32,-3.31 23.95,-9.94 6.63,-6.63 9.94,-14.61 9.94,-23.95 0,-9.34 -3.31,-17.27 -9.94,-23.81 -6.63,-6.54 -14.61,-9.8 -23.95,-9.8z"/>
   <path class="fil12" d="M979.99 1096.94c-10.18,0 -18.94,3.67 -26.27,11 -7.34,7.34 -11,16.09 -11,26.27 0,10.18 3.67,18.94 11,26.27 7.33,7.33 16.09,11 26.27,11 10.18,0 18.94,-3.67 26.27,-11 7.33,-7.34 11,-16.09 11,-26.27 0,-10.18 -3.67,-18.94 -11,-26.27 -7.34,-7.34 -16.09,-11 -26.27,-11z"/>
   <path class="fil12" d="M1033.45 1182.96l22.97 59.39 22.97 -59.39c3.18,-8.22 8.87,-12.33 17.09,-12.33 5.23,0 9.8,1.77 13.73,5.32 3.92,3.55 5.88,7.94 5.88,13.17 0,2.43 -0.47,4.86 -1.4,7.28l-40.62 105.05c-3.92,10.08 -9.8,15.13 -17.65,15.13 -7.84,0 -13.73,-5.04 -17.65,-15.13l-40.62 -105.05c-0.93,-2.43 -1.4,-4.86 -1.4,-7.28 0,-5.23 1.96,-9.62 5.88,-13.17 3.92,-3.55 8.5,-5.32 13.73,-5.32 8.22,0 13.91,4.11 17.09,12.33z"/>
   <path class="fil12" d="M1186.08 1170.92c20.17,0 37.16,6.86 50.98,20.59 13.82,13.73 20.73,30.67 20.73,50.84 0,20.17 -6.91,37.16 -20.73,50.98 -13.82,13.82 -30.81,20.73 -50.98,20.73 -20.17,0 -37.12,-6.91 -50.84,-20.73 -13.73,-13.82 -20.59,-30.81 -20.59,-50.98 0,-20.17 6.86,-37.12 20.59,-50.84 13.73,-13.73 30.67,-20.59 50.84,-20.59zm0 37.82c-9.34,0 -17.27,3.27 -23.81,9.8 -6.54,6.54 -9.8,14.47 -9.8,23.81 0,9.34 3.27,17.32 9.8,23.95 6.54,6.63 14.47,9.94 23.81,9.94 9.34,0 17.32,-3.31 23.95,-9.94 6.63,-6.63 9.94,-14.61 9.94,-23.95 0,-9.34 -3.31,-17.27 -9.94,-23.81 -6.63,-6.54 -14.61,-9.8 -23.95,-9.8z"/>
   <path class="fil12" d="M1069.9 962.45c9.82,0 19.24,1.79 28.24,5.37 9,3.58 16.88,8.59 23.64,15.04 6.75,6.45 12.18,14.07 16.27,22.87 4.09,8.8 6.14,18.32 6.14,28.55l0 56.79c0,5.32 -1.89,9.93 -5.68,13.81 -3.79,3.89 -8.44,5.93 -13.97,6.14 -5.52,0 -10.28,-1.79 -14.27,-5.37 -3.99,-3.58 -5.99,-8.13 -5.99,-13.66l0 -55.25c0,-4.71 -0.87,-9.16 -2.61,-13.35 -1.74,-4.2 -4.2,-7.83 -7.37,-10.9 -3.17,-3.07 -6.86,-5.53 -11.05,-7.37 -4.19,-1.84 -8.75,-2.76 -13.66,-2.76 -4.5,0 -8.8,0.87 -12.89,2.61 -4.09,1.74 -7.67,4.04 -10.74,6.91 -3.07,2.87 -5.53,6.34 -7.37,10.44 -1.84,4.09 -2.76,8.39 -2.76,12.89l0 55.87c0,5.32 -2.05,9.98 -6.14,13.97 -4.09,3.99 -8.8,5.99 -14.12,5.99 -5.32,0 -10.03,-1.84 -14.12,-5.53 -4.09,-3.68 -6.14,-8.19 -6.14,-13.51l0 -55.25c0.21,-10.23 2.2,-19.85 5.99,-28.86 3.79,-9 9,-16.88 15.66,-23.64 6.65,-6.75 14.48,-12.07 23.48,-15.96 9.01,-3.89 18.83,-5.83 29.47,-5.83z"/>
   <path class="fil13" d="M546.73 457.74l0 -3.69c0,-102 82.97,-184.97 184.98,-184.97l3.7 0 0 -37.01 -3.7 0c-122.4,0 -221.97,99.58 -221.97,221.98l0 3.69 36.99 0z"/>
   <path class="fil14" d="M585.91 477.7l0 -3.69c0,-91.81 74.69,-166.49 166.47,-166.49l3.7 0 0 37 -3.7 0c-71.4,0 -129.48,58.08 -129.48,129.49l0 3.69 -36.99 0z"/>
  </g>
 </g>
</svg>
